# xmcd
#
# Track frame offsets: 
#        150
#        29877
#        43395
#        59650
#        77514
#        92377
#        107358
#        125490
#        147103
#        163212
#
# Disc length: 2386 seconds
#
# Revision: 0
# Processed by: cddbd v1.5.2PL0 Copyright (c) Steve Scherf et al.
# Submitted via: ExactAudioCopyFreeDBPlugin 1.0
#
DISCID=8809500a
DTITLE=Various Artist - Forever Soul R&B, Disc 1
DYEAR=2008
DGENRE=Soul
TTITLE0=Marvin Gaye - Let's Get It On (Live)
TTITLE1=The Chi-Lites - Oh Girl
TTITLE2=Harold Melvin and The Blue Notes - If You Don't Know Me By Now
TTITLE3=Brook Benton - Rainy Night In Georgia
TTITLE4=James Brown - Get Up On The Good Foot
TTITLE5=The Delfonics - Didn't I Blow Your Mind This Time
TTITLE6=Marvin Gaye - What's Going On (Live)
TTITLE7=The Chi-Lites - Have You Seen Her
TTITLE8=Harold Melvin and The Blue Notes - The Love I Lost
TTITLE9=Harold Melvin and The Blue Notes - Wake Up Everybody
EXTD=
EXTT0=
EXTT1=
EXTT2=
EXTT3=
EXTT4=
EXTT5=
EXTT6=
EXTT7=
EXTT8=
EXTT9=
PLAYORDER=
